<svg width="24" height="24" viewBox="0 0 24 24" fill="none" xmlns="http://www.w3.org/2000/svg">
<g id="Headphone">
<rect width="24" height="24" rx="12" fill="white" fill-opacity="0.03"/>
<g id="icon_headphone">
<path id="Vector" d="M20.1884 12.0961C20.1884 11.9856 20.1884 11.8799 20.1836 11.7695C20.1355 10.2903 19.7513 8.89755 19.1078 7.67769C17.6382 4.88741 14.8287 3 11.5966 3C8.36446 3 5.55016 4.88741 4.08058 7.67769C3.43703 8.90235 3.05283 10.2903 3.00481 11.7695C3 11.8799 3 11.9856 3 12.0961V16.6201C3 18.6035 4.39754 20.2556 6.26574 20.6542C6.46744 20.8607 6.77482 21 7.12061 21C7.46639 21 7.77375 20.8655 7.97546 20.6542L7.98987 20.6398V12.6003H7.98506C7.78816 12.3842 7.47119 12.2401 7.1158 12.2401C6.76041 12.2401 6.44344 12.3842 6.24654 12.6003H6.24173C5.59819 12.7348 5.01228 13.0277 4.52242 13.4264C4.484 13.46 4.17182 13.7385 4.07577 13.8538V12.0144C4.07577 11.8847 4.18143 11.7743 4.3159 11.7743H4.32551H4.42155C4.58004 7.73052 7.73053 4.5032 11.587 4.5032C15.4434 4.5032 18.5891 7.73052 18.7476 11.7743H18.8581C18.9925 11.7743 19.0982 11.8847 19.0982 12.0144V13.8538C19.0021 13.7385 18.8917 13.6281 18.7764 13.5368C18.7764 13.5368 18.69 13.46 18.6515 13.4264C18.1617 13.0277 17.5758 12.7396 16.9322 12.6003C16.7305 12.3842 16.4136 12.2401 16.0582 12.2401C15.7028 12.2401 15.3954 12.3746 15.1889 12.5955V20.6494C15.1889 20.6494 15.1937 20.6542 15.1985 20.6542C15.4002 20.8607 15.7124 21 16.0534 21C16.3943 21 16.7065 20.8655 16.9082 20.6542C18.7764 20.2556 20.174 18.6035 20.174 16.6201C20.174 16.3031 20.1355 15.9909 20.0683 15.6932C20.1355 15.9909 20.174 16.2983 20.174 16.6201V12.0961H20.1884Z" fill="white"/>
<g id="Group">
<path id="Vector_2" d="M6.39053 18.0416C6.27527 18.0416 6.18402 17.9504 6.18402 17.8351V15.4194C6.18402 15.3041 6.27527 15.2129 6.39053 15.2129C6.50579 15.2129 6.59703 15.3041 6.59703 15.4194V17.8351C6.59703 17.9504 6.50579 18.0416 6.39053 18.0416Z" fill="white"/>
<path id="Vector_3" d="M5.46365 17.5277C5.34839 17.5277 5.25714 17.4365 5.25714 17.3212V15.9333C5.25714 15.818 5.34839 15.7267 5.46365 15.7267C5.57891 15.7267 5.67015 15.818 5.67015 15.9333V17.3212C5.67015 17.4365 5.57891 17.5277 5.46365 17.5277Z" fill="white"/>
</g>
<g id="Group_2">
<path id="Vector_4" d="M16.7641 18.0608C16.6489 18.0608 16.5576 17.9696 16.5576 17.8543V15.4386C16.5576 15.3234 16.6489 15.2321 16.7641 15.2321C16.8794 15.2321 16.9706 15.3234 16.9706 15.4386V17.8543C16.9706 17.9696 16.8794 18.0608 16.7641 18.0608Z" fill="white"/>
<path id="Vector_5" d="M17.6909 17.547C17.5757 17.547 17.4844 17.4557 17.4844 17.3405V15.9525C17.4844 15.8373 17.5757 15.746 17.6909 15.746C17.8062 15.746 17.8974 15.8373 17.8974 15.9525V17.3405C17.8974 17.4557 17.8062 17.547 17.6909 17.547Z" fill="white"/>
</g>
</g>
</g>
</svg>
